<?xml version="1.0" encoding="UTF-8"?>
<svg width="700pt" height="700pt" version="1.1" viewBox="0 0 700 700" xmlns="http://www.w3.org/2000/svg">
 <g>
  <path d="m403.55 258.3c-6.2969-9.0625-13.445-17.504-21.352-25.199-9.668-8.6211-20.094-16.352-31.148-23.102-0.59766-0.53516-1.5039-0.53516-2.1016 0-10.992 6.7617-21.355 14.492-30.973 23.102-8.0508 7.5625-15.215 16.016-21.352 25.199-5.9883 9.2461-9.3203 19.961-9.625 30.973-0.14453 9.5078 3.4375 18.695 9.9766 25.594 6.543 6.9023 15.523 10.969 25.023 11.332 6.0977-0.050781 12.094-1.5508 17.5-4.375-3.3086 9.1523-8.4258 17.547-15.051 24.676-0.23828 0.67969-0.23828 1.4219 0 2.1016 0 1.0508 1.0508 1.5742 2.1016 1.5742h48.824c0.83594-0.082031 1.4961-0.74219 1.5742-1.5742 0.53516-0.59766 0.53516-1.5039 0-2.1016-6.6172-7.1328-11.738-15.523-15.051-24.676 4.9375 2.7344 10.461 4.2383 16.102 4.375 9.6523-0.13672 18.859-4.1055 25.586-11.031 6.7266-6.9258 10.43-16.238 10.289-25.895-0.29688-11.012-3.625-21.73-9.625-30.973z" fill-rule="evenodd"/>
  <path d="m393.75 490h-140c-6.9609 0-13.641-2.7656-18.562-7.6875s-7.6875-11.602-7.6875-18.562v-297.5c0-4.832 3.918-8.75 8.75-8.75s8.75 3.918 8.75 8.75v297.5c0 2.3203 0.92188 4.5469 2.5625 6.1875s3.8672 2.5625 6.1875 2.5625h140c4.832 0 8.75 3.918 8.75 8.75s-3.918 8.75-8.75 8.75z"/>
  <path d="m463.75 402.5c-4.832 0-8.75-3.918-8.75-8.75v-297.5c0-2.3203-0.92188-4.5469-2.5625-6.1875s-3.8672-2.5625-6.1875-2.5625h-140c-4.832 0-8.75-3.918-8.75-8.75s3.918-8.75 8.75-8.75h140c6.9609 0 13.641 2.7656 18.562 7.6875s7.6875 11.602 7.6875 18.562v297.5c0 2.3203-0.92188 4.5469-2.5625 6.1875s-3.8672 2.5625-6.1875 2.5625z"/>
  <path d="m463.75 525h-227.5c-11.602 0-22.73-4.6094-30.938-12.812-8.2031-8.207-12.812-19.336-12.812-30.938v-402.5c0-11.602 4.6094-22.73 12.812-30.938 8.207-8.2031 19.336-12.812 30.938-12.812h227.5c11.602 0 22.73 4.6094 30.938 12.812 8.2031 8.207 12.812 19.336 12.812 30.938v402.5c0 11.602-4.6094 22.73-12.812 30.938-8.207 8.2031-19.336 12.812-30.938 12.812zm-227.5-472.5c-6.9609 0-13.641 2.7656-18.562 7.6875s-7.6875 11.602-7.6875 18.562v402.5c0 6.9609 2.7656 13.641 7.6875 18.562s11.602 7.6875 18.562 7.6875h227.5c6.9609 0 13.641-2.7656 18.562-7.6875s7.6875-11.602 7.6875-18.562v-402.5c0-6.9609-2.7656-13.641-7.6875-18.562s-11.602-7.6875-18.562-7.6875z"/>
  <path d="m393.75 490h-140c-6.9609 0-13.641-2.7656-18.562-7.6875s-7.6875-11.602-7.6875-18.562v-297.5c0-4.832 3.918-8.75 8.75-8.75s8.75 3.918 8.75 8.75v297.5c0 2.3203 0.92188 4.5469 2.5625 6.1875s3.8672 2.5625 6.1875 2.5625h140c4.832 0 8.75 3.918 8.75 8.75s-3.918 8.75-8.75 8.75z"/>
  <path d="m463.75 402.5c-4.832 0-8.75-3.918-8.75-8.75v-297.5c0-2.3203-0.92188-4.5469-2.5625-6.1875s-3.8672-2.5625-6.1875-2.5625h-140c-4.832 0-8.75-3.918-8.75-8.75s3.918-8.75 8.75-8.75h140c6.9609 0 13.641 2.7656 18.562 7.6875s7.6875 11.602 7.6875 18.562v297.5c0 2.3203-0.92188 4.5469-2.5625 6.1875s-3.8672 2.5625-6.1875 2.5625z"/>
  <path d="m273.52 70h-22.047l-23.977 70h21.523l2.625-9.2734h21.699l2.625 9.2734h21.527zm-17.5 46.023 5.6016-19.602v-3.5-3.3242 0.003906c-0.0625 1.0469-0.0625 2.0977 0 3.1484 0 1.0508 0 2.4492 0.875 3.8516l5.4258 19.426z"/>
  <path d="m472.5 420h-21.699l-2.625 9.2734h-21.527l-2.625-9.2734h-21.523l23.977 70h22.051zm-28.176 23.977-5.4258 19.426c0 1.3984 0 2.8008-0.875 3.8516v-0.003906c-0.0625 1.0508-0.0625 2.1016 0 3.1484v-3.3242-3.5l-5.6016-19.602z"/>
 </g>
</svg>
